<svg width="72" height="72" viewBox="0 0 72 72" fill="none" xmlns="http://www.w3.org/2000/svg">
<rect width="72" height="72" rx="36" fill="#EFB140"/>
<path d="M35.4581 13.5421C31.9377 13.8643 29.1918 16.5065 29.6143 19.7286L32.1489 42.3481C32.2897 44.0881 33.8387 45.4414 35.7397 45.6347C37.8519 45.7636 39.7529 44.3459 39.9641 42.4126V42.477L42.4284 19.922V18.6976C42.0764 15.4754 38.908 13.1555 35.4581 13.5421Z" fill="white"/>
<path d="M35.9999 58.5C38.6627 58.5 40.8213 56.3414 40.8213 53.6786C40.8213 51.0158 38.6627 48.8571 35.9999 48.8571C33.3371 48.8571 31.1784 51.0158 31.1784 53.6786C31.1784 56.3414 33.3371 58.5 35.9999 58.5Z" fill="white"/>
</svg>
