<svg width="76" height="100" viewBox="0 0 76 100" fill="none" xmlns="http://www.w3.org/2000/svg">
<path d="M30.207 -1.15907e-05L73.3432 -7.81803e-06C74.5353 -7.71376e-06 75.5 0.965065 75.5 2.15771L75.5 62.5737C75.5 63.7664 74.5353 64.7314 73.3432 64.7314L47.4614 64.7314C46.2693 64.7314 45.3046 63.7664 45.3046 62.5737L45.3046 12.9463L30.207 12.9463C29.0148 12.9463 28.0501 11.9812 28.0501 10.7886L28.0501 2.1577C28.0501 0.965061 29.0148 -1.1695e-05 30.207 -1.15907e-05Z" fill="#E1E4E6"/>
<path d="M49.3091 21.634L47.1523 4.37231H21.2706C20.0626 4.37231 19.1138 5.32157 19.1138 6.53003V66.9461C19.1138 68.1545 20.0626 69.1038 21.2706 69.1038H64.4068C65.6148 69.1038 66.5636 68.1545 66.5636 66.9461V23.7917L49.3091 21.634Z" fill="#F8F9FA"/>
<path d="M33.5855 15.8771C32.1652 15.8601 31.0555 16.9525 31.0504 18.3731C31.0453 19.7649 32.1025 20.8606 33.4803 20.8895C34.9108 20.9202 36.0409 19.8449 36.0612 18.4344C36.0816 17.0018 35.0092 15.8942 33.5855 15.8771Z" fill="#CBD1D6"/>
<path d="M41.0717 15.8753C39.6823 15.8787 38.5453 17.032 38.5688 18.4149C38.5924 19.8097 39.7328 20.9086 41.1339 20.8882C42.4913 20.8695 43.5779 19.7604 43.5796 18.3928C43.5829 16.9809 42.4779 15.8718 41.0717 15.8753Z" fill="#CBD1D6"/>
<path d="M26.0273 20.8902C27.4263 20.8936 28.5478 19.7729 28.5444 18.3734C28.5411 16.9739 27.4162 15.8651 26.0122 15.877C24.6485 15.889 23.5573 16.9773 23.5337 18.3479C23.5085 19.7389 24.6317 20.8851 26.0273 20.8902Z" fill="#CBD1D6"/>
<path d="M49.3067 23.7915H66.5612C66.5612 23.2305 66.3455 22.6695 65.914 22.2812L48.6595 5.01953C48.2714 4.58784 47.7107 4.37207 47.1499 4.37207V21.6338C47.1499 22.8254 48.1156 23.7915 49.3067 23.7915Z" fill="#CBD1D6"/>
<path d="M39.3126 77.0369L43.167 73.1809L60.6725 90.6957C62.798 92.822 62.798 96.2795 60.6725 98.4059C58.5491 100.53 55.091 100.532 52.9655 98.4059L35.4581 80.8929L39.3126 77.0369Z" fill="#E1E4E6"/>
<path d="M7.42551 45.1366C11.7021 40.8582 17.6065 38.2083 24.1177 38.2083C37.1401 38.2083 47.7354 48.8079 47.7354 61.8358C47.7354 68.3497 45.0865 74.2566 40.8099 78.535C36.5333 82.8134 30.6289 85.4633 24.1177 85.4633C11.0953 85.4633 0.500099 74.8636 0.500099 61.8358C0.500099 55.3218 3.1489 49.415 7.42551 45.1366Z" fill="#CBD1D6"/>
<path d="M12.5612 50.2743C15.5217 47.3125 19.6094 45.478 24.1176 45.478C33.1338 45.478 40.4683 52.8155 40.4683 61.8355C40.4683 66.3456 38.6347 70.435 35.674 73.3968C32.7133 76.3586 28.6257 78.193 24.1176 78.193C15.1014 78.193 7.76693 70.8556 7.76693 61.8355C7.76693 57.3256 9.6005 53.2362 12.5612 50.2743Z" fill="white"/>
<path fill-rule="evenodd" clip-rule="evenodd" d="M32.167 55.9316C32.4633 55.6351 32.4633 55.1545 32.167 54.8581L31.0939 53.7846C30.7976 53.4881 30.3172 53.4881 30.0209 53.7846L24.1191 59.6888L18.2173 53.7846C17.921 53.4881 17.4406 53.4881 17.1443 53.7846L16.0712 54.8581C15.7749 55.1545 15.7749 55.6351 16.0712 55.9316L21.973 61.8358L16.0712 67.7401C15.7749 68.0365 15.7749 68.5171 16.0712 68.8136L17.1443 69.8871C17.4406 70.1835 17.921 70.1835 18.2173 69.8871L24.1191 63.9828L30.0209 69.8871C30.3172 70.1835 30.7976 70.1835 31.0939 69.8871L32.167 68.8136C32.4633 68.5171 32.4633 68.0365 32.167 67.7401L26.2652 61.8358L32.167 55.9316Z" fill="#F56F65"/>
<path fill-rule="evenodd" clip-rule="evenodd" d="M32.3775 54.6475C32.7901 55.0602 32.7901 55.7294 32.3775 56.1422L26.6863 61.8358L32.3775 67.5295C32.7901 67.9422 32.7901 68.6114 32.3775 69.0242L31.3045 70.0977C30.8919 70.5104 30.2229 70.5104 29.8104 70.0977L24.1191 64.4041L18.4279 70.0977C18.0153 70.5104 17.3463 70.5104 16.9338 70.0977L15.8607 69.0242C15.4481 68.6114 15.4481 67.9422 15.8607 67.5295L21.552 61.8358L15.8607 56.1422C15.4481 55.7294 15.4481 55.0602 15.8607 54.6475L16.9338 53.574C17.3463 53.1612 18.0153 53.1612 18.4279 53.574L24.1191 59.2676L29.8104 53.574C30.2229 53.1612 30.8919 53.1612 31.3045 53.574L32.3775 54.6475ZM30.0209 53.7846C30.3172 53.4881 30.7976 53.4881 31.0939 53.7846L32.167 54.8581C32.4633 55.1545 32.4633 55.6351 32.167 55.9316L26.2652 61.8358L32.167 67.7401C32.4633 68.0365 32.4633 68.5171 32.167 68.8136L31.0939 69.8871C30.7976 70.1835 30.3172 70.1835 30.0209 69.8871L24.1191 63.9828L18.2173 69.8871C17.921 70.1835 17.4406 70.1835 17.1443 69.8871L16.0712 68.8136C15.7749 68.5171 15.7749 68.0365 16.0712 67.7401L21.973 61.8358L16.0712 55.9316C15.7749 55.6351 15.7749 55.1545 16.0712 54.8581L17.1443 53.7846C17.4406 53.4881 17.921 53.4881 18.2173 53.7846L24.1191 59.6888L30.0209 53.7846Z" fill="#F56F65"/>
</svg>
