<svg width="72" height="72" viewBox="0 0 72 72" fill="none" xmlns="http://www.w3.org/2000/svg">
<rect width="72" height="72" rx="36" fill="#48BB78"/>
<path fill-rule="evenodd" clip-rule="evenodd" d="M30.1612 42.3078L19.9434 31.269C19.1372 30.3981 17.8302 30.3981 17.024 31.269L14.1046 34.423C13.2985 35.2939 13.2985 36.706 14.1046 37.577L25.7678 50.1772C25.7725 50.1824 25.7773 50.1876 25.7821 50.1928L28.7015 53.3468C29.0639 53.7383 29.5275 53.9538 30.0013 53.9933C30.318 54.0198 30.6393 53.9675 30.938 53.8367C31.1865 53.7278 31.4194 53.5645 31.621 53.3468L34.5404 50.1928C34.5444 50.1884 34.5485 50.184 34.5525 50.1796L57.8954 24.9611C58.7015 24.0902 58.7015 22.6781 57.8954 21.8072L54.976 18.6532C54.1698 17.7823 52.8628 17.7823 52.0566 18.6532L30.1612 42.3078Z" fill="white"/>
</svg>
